<svg xmlns="http://www.w3.org/2000/svg" viewBox="0 0 690 679"><g transform="translate(0,679) scale(0.1,-0.1)" fill="#0054F5"><path d="M3180 6359 c-828 -83 -1552 -469 -2078 -1107 -29 -35 -52 -65 -52
-68 0 -7 390 -784 393 -784 2 0 27 39 56 88 323 544 868 938 1476 1066 340 71
750 60 1075 -31 561 -156 1042 -523 1344 -1027 l66 -110 195 398 196 398 -40
51 c-22 29 -82 97 -133 152 -495 534 -1121 860 -1839 960 -137 19 -526 27
-659 14z"/><path d="M3344 5239 c-482 -963 -2004 -4055 -2000 -4065 8 -20 194 -182 305
-264 193 -144 456 -291 676 -378 82 -32 173 -64 313 -108 14 -4 359 682 348
693 -3 3 -48 17 -98 30 -159 41 -267 82 -436 164 l-162 79 68 137 c37 76 297
603 578 1170 280 568 511 1033 514 1033 5 0 1144 -2293 1158 -2330 4 -11 -240
-133 -348 -173 -105 -40 -244 -82 -303 -93 -20 -3 -39 -10 -42 -14 -3 -4 72
-163 165 -353 l171 -345 82 25 c296 90 621 251 872 431 101 72 162 122 282
230 l82 73 -189 380 c-105 208 -580 1168 -1056 2131 -476 964 -868 1755 -869
1757 -2 2 -52 -93 -111 -210z"/><path d="M573 4283 c-245 -752 -189 -1559 157 -2268 38 -77 75 -148 82 -158
12 -17 37 28 233 429 121 246 219 450 218 453 -23 89 -55 264 -65 356 l-12
120 -287 583 c-158 320 -289 582 -291 582 -2 0 -18 -44 -35 -97z"/><path d="M5998 3787 l-287 -582 -16 -136 c-8 -75 -26 -180 -39 -233 l-23 -97
221 -446 c173 -349 224 -443 233 -432 18 23 120 231 159 326 230 555 288 1176
165 1773 -30 148 -108 410 -121 410 -3 0 -134 -263 -292 -583z"/></g></svg>